<mxfile host="Electron" modified="2023-09-14T08:00:04.476Z" agent="Mozilla/5.0 (Windows NT 10.0; Win64; x64) AppleWebKit/537.36 (KHTML, like Gecko) draw.io/21.6.8 Chrome/114.0.5735.289 Electron/25.5.0 Safari/537.36" etag="a0ByU-YUTDzObBNinp_w" version="21.6.8" type="device">
  <diagram name="Страница — 1" id="9TO6T2Rzud4ipJIJNEm0">
    <mxGraphModel dx="607" dy="367" grid="1" gridSize="10" guides="1" tooltips="1" connect="1" arrows="1" fold="1" page="1" pageScale="1" pageWidth="827" pageHeight="1169" math="0" shadow="0">
      <root>
        <mxCell id="0" />
        <mxCell id="1" parent="0" />
        <mxCell id="mhqY_iYn4rr2e7hbQ51w-12" style="edgeStyle=orthogonalEdgeStyle;rounded=0;orthogonalLoop=1;jettySize=auto;html=1;exitX=0.5;exitY=0.5;exitDx=0;exitDy=0;exitPerimeter=0;" edge="1" parent="1" source="h6lPOWmGv0TijdTMNSPT-1" target="mhqY_iYn4rr2e7hbQ51w-11">
          <mxGeometry relative="1" as="geometry" />
        </mxCell>
        <mxCell id="h6lPOWmGv0TijdTMNSPT-1" value="Продавец" style="shape=umlActor;verticalLabelPosition=bottom;verticalAlign=top;html=1;outlineConnect=0;" parent="1" vertex="1">
          <mxGeometry x="490" y="610" width="30" height="60" as="geometry" />
        </mxCell>
        <mxCell id="mhqY_iYn4rr2e7hbQ51w-6" style="edgeStyle=orthogonalEdgeStyle;rounded=0;orthogonalLoop=1;jettySize=auto;html=1;exitX=0.5;exitY=0;exitDx=0;exitDy=0;exitPerimeter=0;entryX=0.5;entryY=1;entryDx=0;entryDy=0;" edge="1" parent="1" source="h6lPOWmGv0TijdTMNSPT-4" target="mhqY_iYn4rr2e7hbQ51w-4">
          <mxGeometry relative="1" as="geometry" />
        </mxCell>
        <mxCell id="mhqY_iYn4rr2e7hbQ51w-9" style="edgeStyle=orthogonalEdgeStyle;rounded=0;orthogonalLoop=1;jettySize=auto;html=1;exitX=0.5;exitY=0.5;exitDx=0;exitDy=0;exitPerimeter=0;entryX=0;entryY=0.5;entryDx=0;entryDy=0;" edge="1" parent="1" source="h6lPOWmGv0TijdTMNSPT-4" target="mhqY_iYn4rr2e7hbQ51w-7">
          <mxGeometry relative="1" as="geometry" />
        </mxCell>
        <mxCell id="mhqY_iYn4rr2e7hbQ51w-10" style="edgeStyle=orthogonalEdgeStyle;rounded=0;orthogonalLoop=1;jettySize=auto;html=1;exitX=0.5;exitY=0.5;exitDx=0;exitDy=0;exitPerimeter=0;entryX=1;entryY=0.5;entryDx=0;entryDy=0;" edge="1" parent="1" source="h6lPOWmGv0TijdTMNSPT-4" target="mhqY_iYn4rr2e7hbQ51w-8">
          <mxGeometry relative="1" as="geometry" />
        </mxCell>
        <mxCell id="h6lPOWmGv0TijdTMNSPT-4" value="Оператор" style="shape=umlActor;verticalLabelPosition=bottom;verticalAlign=top;html=1;outlineConnect=0;" parent="1" vertex="1">
          <mxGeometry x="234" y="590" width="30" height="60" as="geometry" />
        </mxCell>
        <mxCell id="mhqY_iYn4rr2e7hbQ51w-14" style="edgeStyle=orthogonalEdgeStyle;rounded=0;orthogonalLoop=1;jettySize=auto;html=1;exitX=0.5;exitY=0.5;exitDx=0;exitDy=0;exitPerimeter=0;entryX=1;entryY=0.5;entryDx=0;entryDy=0;" edge="1" parent="1" source="h6lPOWmGv0TijdTMNSPT-5" target="mhqY_iYn4rr2e7hbQ51w-13">
          <mxGeometry relative="1" as="geometry" />
        </mxCell>
        <mxCell id="h6lPOWmGv0TijdTMNSPT-5" value="Кладовщик" style="shape=umlActor;verticalLabelPosition=bottom;verticalAlign=top;html=1;outlineConnect=0;" parent="1" vertex="1">
          <mxGeometry x="640" y="480" width="30" height="60" as="geometry" />
        </mxCell>
        <mxCell id="mhqY_iYn4rr2e7hbQ51w-4" value="Группировка заказов по типу компьютеров" style="ellipse;whiteSpace=wrap;html=1;" vertex="1" parent="1">
          <mxGeometry x="174.5" y="470" width="149" height="80" as="geometry" />
        </mxCell>
        <mxCell id="mhqY_iYn4rr2e7hbQ51w-7" value="Сборка и тест компьютеров" style="ellipse;whiteSpace=wrap;html=1;" vertex="1" parent="1">
          <mxGeometry x="294" y="580" width="120" height="80" as="geometry" />
        </mxCell>
        <mxCell id="mhqY_iYn4rr2e7hbQ51w-8" value="Упаковка компьютеров" style="ellipse;whiteSpace=wrap;html=1;" vertex="1" parent="1">
          <mxGeometry x="90" y="580" width="120" height="80" as="geometry" />
        </mxCell>
        <mxCell id="mhqY_iYn4rr2e7hbQ51w-11" value="Принять заказ" style="ellipse;whiteSpace=wrap;html=1;" vertex="1" parent="1">
          <mxGeometry x="560" y="600" width="120" height="80" as="geometry" />
        </mxCell>
        <mxCell id="mhqY_iYn4rr2e7hbQ51w-13" value="Отгрузить заказ" style="ellipse;whiteSpace=wrap;html=1;" vertex="1" parent="1">
          <mxGeometry x="480" y="470" width="120" height="80" as="geometry" />
        </mxCell>
      </root>
    </mxGraphModel>
  </diagram>
</mxfile>
